# xmcd CD database file
#
# Track frame offsets:
#	150
#	30808
#	56011
#	86364
#	128871
#	144816
#	170911
#	194926
#	222323
#
# Disc length: 3167 seconds
#
# Revision: 0
# Processed by: cddbd v1.5.1PL0 Copyright (c) Steve Scherf et al.
# Submitted via: CDex 1.51
#
DISCID=7f0c5d09
DTITLE=Till Brönner - love
DYEAR=1998
DGENRE=Jazz
TTITLE0=Where Do You Start
TTITLE1=What Stays
TTITLE2=Our Game
TTITLE3=Brazil
TTITLE4=Ich hab' naoch einen Koffer in Berlin
TTITLE5=We Fly Around The World
TTITLE6=I Fall In Love Too Easily
TTITLE7=Here's That Rainy Day
TTITLE8=Time Will Tell
EXTD=YEAR: 1998
EXTT0=
EXTT1=
EXTT2=
EXTT3=
EXTT4=
EXTT5=
EXTT6=
EXTT7=
EXTT8=
PLAYORDER=
